PathFileType	4	(X/Y/Z)	/Users/niels/Desktop/University/Third Semester/Perception and Action/Exam/Gymnastics Motion Tracking/Code for Gym Tracking/Analyzed Data/Webcam_Backflip/id18_1_trajectory_Sports2D/id18_1_trajectory_Sports2D_px_person00.trc
DataRate	CameraRate	NumFrames	NumMarkers	Units	OrigDataRate	OrigDataStartFrame	OrigNumFrames
29.872340425531917	29.872340425531917	12	22	m	29.872340425531917	88	235
Frame#	Time	Hip			RHip			RKnee			RAnkle			RBigToe			RSmallToe			RHeel			LHip			LKnee			LAnkle			LBigToe			LSmallToe			LHeel			Neck			Head			Nose			RShoulder			RElbow			RWrist			LShoulder			LElbow			LWrist		
		X1	Y1	Z1	X2	Y2	Z2	X3	Y3	Z3	X4	Y4	Z4	X5	Y5	Z5	X6	Y6	Z6	X7	Y7	Z7	X8	Y8	Z8	X9	Y9	Z9	X10	Y10	Z10	X11	Y11	Z11	X12	Y12	Z12	X13	Y13	Z13	X14	Y14	Z14	X15	Y15	Z15	X16	Y16	Z16	X17	Y17	Z17	X18	Y18	Z18	X19	Y19	Z19	X20	Y20	Z20	X21	Y21	Z21	X22	Y22	Z22
88	2.9458689458689458	0.8594508748208826	-0.6866103401650357	0.0	0.8483421169971389	-0.6844890666036951	0.0	0.8582125152852788	-0.7752859476638394	0.0	0.8288011672835379	-0.8678309997801957	0.0	0.8396273466680652	-0.8924140654683341	0.0	0.8309847335360397	-0.889264654457435	0.0	0.822199793006761	-0.8784515285421571	0.0	0.8733521066968716	-0.6833734814503029	0.0	0.8602275516200191	-0.7772279888038846	0.0	0.8330561837100775	-0.8669593534916097	0.0	0.8517578970896679	-0.889644131127025	0.0	0.8517659172151018	-0.8851668056327483	0.0	0.8248795510466901	-0.8802608668512973	0.0	0.8450646800467358	-0.5472066452068122	0.0	0.8515579477982497	-0.4804458281105883	0.0	0.8552438281680305	-0.5177826760512831	0.0	0.8146989282144258	-0.5681708042781826	0.0	0.7902484719044349	-0.6237868114517153	0.0	0.7921821836762415	-0.684303758223482	0.0	0.8694759920901363	-0.5666477818012939	0.0	0.8702733099642183	-0.6232390541518448	0.0	0.8852375841098615	-0.665077189155829	0.0
89	2.9793447293447293	0.8552360649330585	-0.7056002770870754	0.0	0.8442221906364068	-0.7039809459037191	0.0	0.8529490040681603	-0.7940844590106436	0.0	0.8235481295967757	-0.8847649600248993	0.0	0.8366141737206797	-0.908202098676869	0.0	0.828406633672132	-0.9036408119319203	0.0	0.81720291176279	-0.8937088466356012	0.0	0.8688191245619845	-0.7031155255564787	0.0	0.855681426928659	-0.7952347231646225	0.0	0.8276058740244671	-0.8832385832165884	0.0	0.8496821045784038	-0.9057562912020614	0.0	0.8482280843469779	-0.8998339954018134	0.0	0.8191833275840011	-0.8948420835838898	0.0	0.8441170121139103	-0.5654777272074859	0.0	0.8496506991377728	-0.4998990122010377	0.0	0.853583468445182	-0.5359956911847801	0.0	0.8135702026972361	-0.5886552649498018	0.0	0.7911868350575109	-0.6453410482341259	0.0	0.7866153495042946	-0.7072461756142637	0.0	0.868372394580785	-0.5849927470717641	0.0	0.8687827568619129	-0.6416777715085035	0.0	0.8839641670571735	-0.6824159148283302	0.0
90	3.0128205128205128	0.8511505379479807	-0.722277412893046	0.0	0.8399716255262304	-0.7211301211160673	0.0	0.8477879725226138	-0.8110074761534636	0.0	0.8188090628288002	-0.8995173351176865	0.0	0.8341898734554176	-0.9232012103917878	0.0	0.8261465286363379	-0.9173594102035856	0.0	0.8123731986066016	-0.9073033267659396	0.0	0.8644538535130155	-0.7205616464161446	0.0	0.8521356624936818	-0.8114043558306677	0.0	0.8229718793207312	-0.8973170891444336	0.0	0.8481335212436617	-0.921044006879575	0.0	0.8454009602794996	-0.9136603316088484	0.0	0.8139069102754091	-0.907499323746235	0.0	0.8435447393777759	-0.5818931951108622	0.0	0.8486041347995559	-0.5176191673467082	0.0	0.8528103073701743	-0.5524158564870086	0.0	0.812585004974267	-0.6070503042378141	0.0	0.7921813847567787	-0.6649104557445887	0.0	0.782572528943561	-0.7276883319817818	0.0	0.867571186059491	-0.6013021849085034	0.0	0.8674335515329727	-0.6579365902609864	0.0	0.8832579023881083	-0.6980128005723207	0.0
91	3.0462962962962963	0.8473528887170307	-0.7353832242862942	0.0	0.8356506946410807	-0.7345876427165262	0.0	0.8431696159505926	-0.8247038917575555	0.0	0.8150969663085511	-0.9111706329792498	0.0	0.8326462336558245	-0.9353732531474968	0.0	0.824457744232414	-0.9290808020203729	0.0	0.8083981794649452	-0.9187574296243247	0.0	0.8605757048268492	-0.7343052269281415	0.0	0.8499184920915487	-0.8245946789986884	0.0	0.8196475652264947	-0.90843508537891	0.0	0.8472002518685532	-0.933492964715391	0.0	0.8436328030505317	-0.9255695878904087	0.0	0.8097665863674369	-0.9180320850160155	0.0	0.8433165305596245	-0.5952274409327661	0.0	0.8483488648036777	-0.5323381914391957	0.0	0.8528681027409377	-0.5658350554456657	0.0	0.8116303050763808	-0.6219540293090196	0.0	0.7926928086836496	-0.6808168421017231	0.0	0.7802424323002761	-0.7441251763312716	0.0	0.8672438308427256	-0.6144954581861651	0.0	0.8664938441887277	-0.6708434715383657	0.0	0.8830725215784411	-0.7109372834202118	0.0
92	3.07977207977208	0.8439759230168347	-0.7439125227993658	0.0	0.8314503329285452	-0.7433229450052052	0.0	0.8395239184188255	-0.8339392775563762	0.0	0.8127370083632206	-0.9189136439655247	0.0	0.8321134223871427	-0.9426926957012962	0.0	0.8236053376342263	-0.9371661792450876	0.0	0.8058402814438337	-0.9274780809069565	0.0	0.8573962322930858	-0.7432346912981775	0.0	0.8488685060727542	-0.8336690868020217	0.0	0.8176908290963181	-0.9159513122804812	0.0	0.8467774543017181	-0.9411083500157659	0.0	0.8428215795249958	-0.93412051822201	0.0	0.8071425032635113	-0.9262065141994997	0.0	0.8433915532322293	-0.604458040568321	0.0	0.8487374020872538	-0.542927550595078	0.0	0.8535319754331604	-0.5752240400749147	0.0	0.8106567217140154	-0.6322449130052139	0.0	0.7923455141197793	-0.6916847538724922	0.0	0.7795662379676395	-0.7553111844921586	0.0	0.8675211825355159	-0.6236549151286206	0.0	0.8662023425765549	-0.6793679700108425	0.0	0.8832305103819477	-0.7200768720769629	0.0
93	3.1132478632478633	0.8411155149258221	-0.7472508566777892	0.0	0.8276428792590135	-0.7467655083607205	0.0	0.8370418951791865	-0.8379026700938704	0.0	0.8117268966094069	-0.9222393471919564	0.0	0.8324088680504115	-0.9444250229356049	0.0	0.8236047152354468	-0.9405003196282067	0.0	0.8048757472697662	-0.932728182678238	0.0	0.8549555304107892	-0.7467364703273084	0.0	0.848442671072786	-0.8378149646350954	0.0	0.8167855407928999	-0.91942656442187	0.0	0.8465587796185707	-0.9432486211140547	0.0	0.8424923275714596	-0.9381593022770738	0.0	0.8059356218010231	-0.9314548145575451	0.0	0.8437111445567728	-0.6089175001989792	0.0	0.849584171097072	-0.548547345698168	0.0	0.8544880180777673	-0.5798896163564559	0.0	0.8096804365634374	-0.6372010788518273	0.0	0.7911205780776818	-0.6966909842718833	0.0	0.7802079026312366	-0.7604525390843007	0.0	0.8684122880123424	-0.6281125159665861	0.0	0.8667179074248029	-0.6828671537426065	0.0	0.8835200643431084	-0.7246294069345294	0.0
94	3.146723646723647	0.8388395731723125	-0.7452779266416698	0.0	0.8244754472242503	-0.7448426938529858	0.0	0.8355511129445865	-0.8363647475192465	0.0	0.8117588856565955	-0.9209781048786384	0.0	0.833060524517092	-0.94096710690568	0.0	0.8241258151662315	-0.9387633249379961	0.0	0.8052711972072831	-0.9335360583835092	0.0	0.8531768701140343	-0.7447728992787133	0.0	0.8480863393400053	-0.8367499195381003	0.0	0.8164988122048317	-0.9186410234843974	0.0	0.8462097751726825	-0.940404811978625	0.0	0.8421237159075189	-0.9371918683999146	0.0	0.8057246321124784	-0.9326958898986272	0.0	0.8442104922302944	-0.6083549467860259	0.0	0.8507151223585597	-0.548805982194053	0.0	0.8554750114457654	-0.5795793210180442	0.0	0.8087777266645566	-0.6365867352034595	0.0	0.7893522178907347	-0.6956970922101855	0.0	0.7816331863197256	-0.7593972118287025	0.0	0.8698072521821919	-0.6275920353387435	0.0	0.8680737435972721	-0.681271430816589	0.0	0.8837844424132387	-0.7243365785032677	0.0
95	3.1801994301994303	0.837195118997905	-0.7384129193316686	0.0	0.8220842951877366	-0.737943167842598	0.0	0.8346319581519388	-0.8296436203387909	0.0	0.8123896759560162	-0.9152344991873597	0.0	0.8336733290190398	-0.9329095175057416	0.0	0.8248033949813345	-0.9320924206909523	0.0	0.806541086500043	-0.929060664884582	0.0	0.8519770591937202	-0.7378236580596519	0.0	0.8475553798740031	-0.830682773188544	0.0	0.816556339521378	-0.9135669650996584	0.0	0.8456294206491857	-0.933123980542664	0.0	0.8415624427555496	-0.931165626527976	0.0	0.8061321464005722	-0.9288343576927763	0.0	0.8448309268640175	-0.6029584917147062	0.0	0.8520045821665122	-0.5438639814594554	0.0	0.8563685535326674	-0.5745125623427345	0.0	0.8080452871250362	-0.6307013437634197	0.0	0.7875389602038677	-0.6892326007131604	0.0	0.7832482445094899	-0.7526991601004265	0.0	0.8715407858662055	-0.6223172555069377	0.0	0.8701459364038058	-0.6750554403551503	0.0	0.8839423702488006	-0.7194051816306923	0.0
96	3.213675213675214	0.8361622126429565	-0.7275270707390503	0.0	0.8204454543781775	-0.7268480325957184	0.0	0.8338922440942313	-0.8185220764622774	0.0	0.8132290160803459	-0.9054616788923384	0.0	0.8343234723386735	-0.9210382600897274	0.0	0.8256409198585642	-0.9211629848349544	0.0	0.8081175190828771	-0.9194381367427548	0.0	0.8512689519500068	-0.726772720469568	0.0	0.8469325369507507	-0.8202485566038521	0.0	0.8169085665355708	-0.9044498328903976	0.0	0.8450331966337834	-0.9220272333997626	0.0	0.8411478063171056	-0.9206127883720163	0.0	0.8070054036565533	-0.9197549635301507	0.0	0.8455322673680894	-0.5933458636436542	0.0	0.8533910434569141	-0.5344396981448045	0.0	0.8571736773418849	-0.5653466798147696	0.0	0.8075391107382085	-0.6203344281795845	0.0	0.7861042121803349	-0.6783244651510638	0.0	0.7845557241542717	-0.7414416609259923	0.0	0.8734392626435067	-0.6129639384126363	0.0	0.8726861407305093	-0.6650239989302488	0.0	0.8839924123580833	-0.7103669198768499	0.0
97	3.2471509971509973	0.8356161253969133	-0.7137481519959816	0.0	0.8193904542180389	-0.7126220684797564	0.0	0.8331300170755757	-0.8041622513952705	0.0	0.8140308363882527	-0.8925479709883184	0.0	0.8354859922966785	-0.9066824906281554	0.0	0.8269989729075432	-0.9073905961057608	0.0	0.8094969581113759	-0.9060316855953657	0.0	0.8509340514615531	-0.7127534668115565	0.0	0.8464702080022483	-0.806462164098926	0.0	0.8176284368091865	-0.8919217823260949	0.0	0.8448368988730407	-0.9082684397018912	0.0	0.8414710042761224	-0.9068557834952382	0.0	0.8083415150028159	-0.906616991360112	0.0	0.8463099225140889	-0.5804914912809528	0.0	0.8548574055016306	-0.5216869292025044	0.0	0.857944093956349	-0.5530766988663367	0.0	0.8072553788181551	-0.6066086803931989	0.0	0.7852587183620766	-0.66423167222023	0.0	0.7852690429318466	-0.7269487053956295	0.0	0.8753491659129188	-0.6005039397130021	0.0	0.8754235195121591	-0.6521480116235273	0.0	0.884016311975531	-0.6980511652519533	0.0
98	3.280626780626781	0.8353736334146312	-0.6982731925300709	0.0	0.8186881003093552	-0.696472126545024	0.0	0.8323085971448637	-0.7879659313911049	0.0	0.8146906227506335	-0.8777077203625536	0.0	0.8374874846946573	-0.8913892259892547	0.0	0.8290955370000761	-0.8924549378767505	0.0	0.8103811397347683	-0.8907118183673257	0.0	0.8508698909770632	-0.6969696985976663	0.0	0.8464457000912099	-0.7906069705347932	0.0	0.8187979444214124	-0.8770208757794578	0.0	0.8454067499934979	-0.8932820768863177	0.0	0.8429328770684864	-0.8915150511330001	0.0	0.8101708050023889	-0.8911600538497965	0.0	0.8471813570873836	-0.5655803175308606	0.0	0.8563830977653719	-0.5069619963699302	0.0	0.8586977931924517	-0.5388749317442668	0.0	0.8071496256458186	-0.5907872430974175	0.0	0.784993189989343	-0.6482207341672864	0.0	0.785329614984135	-0.7105538077266003	0.0	0.8771718925602477	-0.586062753765552	0.0	0.8781652607318597	-0.6375222258694934	0.0	0.8841358519979533	-0.6835634469704637	0.0
99	3.3141025641025643	0.8352852462351228	-0.6822817227922189	0.0	0.8181386463085969	-0.6796651179717379	0.0	0.8314681288728232	-0.7713652723747036	0.0	0.8152366361460086	-0.8622496674259176	0.0	0.8400971108596147	-0.8765094102338421	0.0	0.8316028896346103	-0.8777727919126854	0.0	0.8107691878239562	-0.8751255135490195	0.0	0.8510273546018808	-0.6806123778453571	0.0	0.8470056838023128	-0.7740671806224724	0.0	0.8204563172292024	-0.8610805803252506	0.0	0.8468021883092592	-0.8783792925073867	0.0	0.845447557868999	-0.8760319152186353	0.0	0.8125171442634707	-0.8750318381341861	0.0	0.848148378232547	-0.5498331439782848	0.0	0.8579268253596597	-0.49156872406290997	0.0	0.8594012582195573	-0.523929868893347	0.0	0.8071583055366658	-0.5741277101321214	0.0	0.7851371467511733	-0.6314572869550978	0.0	0.7848496190227332	-0.6934654749220738	0.0	0.8788769389814693	-0.5708239593174901	0.0	0.8808179631770218	-0.6223059777700676	0.0	0.8844595173214925	-0.668112465094842	0.0
